<?xml version="1.0" standalone="no"?>
<!DOCTYPE svg PUBLIC "-//W3C//DTD SVG 20010904//EN"
 "http://www.w3.org/TR/2001/REC-SVG-20010904/DTD/svg10.dtd">
<svg version="1.0" xmlns="http://www.w3.org/2000/svg"
 width="512.000000pt" height="1024.000000pt" viewBox="0 0 512.000000 1024.000000"
 preserveAspectRatio="xMidYMid meet">

<g transform="translate(0.000000,1024.000000) scale(0.100000,-0.100000)"
fill="#000000" stroke="none">
<path d="M0 5120 l0 -5120 95 0 95 0 0 5120 0 5120 -95 0 -95 0 0 -5120z"/>
<path d="M2047 9489 c-45 -10 -110 -42 -154 -76 -60 -44 -145 -186 -156 -259
-12 -78 -9 -2285 3 -2341 22 -101 109 -206 222 -269 52 -29 55 -29 238 -32
102 -2 209 -1 238 3 51 6 52 7 52 39 0 20 -8 40 -20 51 -12 11 -18 25 -15 36
9 29 -51 40 -241 48 -168 6 -171 6 -204 34 -42 36 -67 67 -81 103 -8 21 -11
358 -11 1177 l1 1148 29 52 c41 72 85 105 158 117 93 15 994 13 995 -2 1 -7 2
-121 3 -253 1 -204 4 -249 20 -303 27 -90 110 -178 196 -207 14 -5 141 -11
282 -14 141 -3 259 -9 263 -13 4 -3 9 -379 11 -835 l5 -829 -28 -53 c-56 -108
-115 -131 -333 -131 l-127 0 -27 -54 c-23 -45 -25 -57 -15 -79 11 -25 12 -25
177 -32 140 -6 178 -5 239 9 114 27 186 84 249 200 l29 51 3 959 2 960 -26 53
c-20 41 -75 102 -237 261 -405 397 -450 437 -531 471 -44 20 -68 20 -609 19
-309 0 -579 -5 -600 -9z m1363 -365 c52 -53 147 -140 210 -194 147 -125 200
-177 200 -195 0 -13 -32 -15 -207 -15 l-207 0 -38 26 c-74 51 -78 67 -78 283
0 148 3 191 13 191 7 0 55 -43 107 -96z"/>
<path d="M2815 8458 c-37 -20 -644 -647 -664 -687 -16 -28 -7 -84 20 -127 31
-51 71 -64 201 -64 l115 0 6 -127 c4 -71 7 -248 7 -395 0 -147 4 -278 10 -292
20 -54 47 -61 255 -64 310 -6 347 -5 408 8 47 9 60 16 68 36 5 15 9 200 9 430
l0 404 122 0 c108 0 125 2 153 21 62 43 98 127 73 172 -17 32 -620 657 -656
679 -30 20 -97 23 -127 6z"/>
<path d="M4630 8228 c-15 -24 -20 -51 -20 -100 l0 -68 -69 0 c-53 0 -78 -5
-106 -21 -43 -26 -55 -46 -55 -96 0 -30 7 -46 29 -67 28 -27 53 -34 121 -35
34 -1 36 -3 59 -68 28 -81 53 -111 98 -119 38 -7 64 10 89 58 8 16 31 33 58
43 25 10 47 23 50 31 3 8 30 25 59 38 58 26 97 69 97 109 0 34 -38 78 -124
141 -40 30 -93 81 -121 119 -49 66 -51 67 -98 67 -43 0 -49 -3 -67 -32z"/>
<path d="M2734 6662 c-19 -12 -44 -70 -44 -101 0 -27 4 -31 36 -37 37 -7 160
1 202 12 22 6 23 11 20 60 -2 31 1 55 7 55 6 1 -10 5 -35 10 -58 10 -172 11
-186 1z"/>
<path d="M2104 5048 c-32 -4 -78 -15 -101 -23 -58 -22 -162 -135 -204 -221
l-34 -68 -6 -320 c-4 -176 -7 -727 -8 -1225 -2 -991 -3 -964 57 -1074 28 -51
88 -106 171 -155 l46 -27 850 3 c573 2 861 7 885 14 111 34 194 108 249 220
l33 67 2 988 1 988 -22 45 c-25 50 -195 238 -381 420 -275 270 -334 322 -385
345 l-52 24 -521 3 c-286 2 -547 0 -580 -4z m986 -178 c13 -8 15 -50 15 -272
1 -339 6 -365 97 -459 82 -86 111 -93 401 -94 191 -1 240 -4 247 -15 19 -31
23 -220 18 -965 -4 -712 -6 -783 -22 -813 -31 -61 -85 -110 -139 -129 -49 -18
-95 -18 -838 -13 l-786 5 -56 37 c-31 21 -64 52 -73 70 -32 62 -36 246 -29
1363 6 1064 6 1091 26 1132 34 71 75 119 120 141 43 22 52 22 524 22 286 0
486 -4 495 -10z m388 -268 c92 -92 206 -205 255 -251 48 -47 87 -90 87 -97 0
-26 -66 -31 -309 -26 l-124 2 -48 49 -49 48 0 215 c0 193 3 228 18 228 2 0 79
-76 170 -168z"/>
<path d="M2282 3730 c-39 -24 -50 -61 -28 -95 35 -54 23 -53 675 -53 l604 0
29 28 c35 36 36 64 0 99 -27 28 -28 28 -207 35 -99 3 -374 6 -611 6 -406 -1
-432 -2 -462 -20z"/>
<path d="M2278 3324 c-52 -28 -47 -99 9 -127 41 -21 1215 -31 1255 -11 54 28
63 82 21 126 l-27 28 -615 0 c-525 -1 -620 -3 -643 -16z"/>
<path d="M2463 2930 c-164 -5 -173 -6 -197 -29 -36 -34 -34 -75 4 -111 l31
-29 612 3 c569 2 614 4 640 21 47 30 50 95 5 128 -25 19 -45 19 -475 21 -246
0 -525 -1 -620 -4z"/>
<path d="M2272 2507 c-12 -13 -25 -37 -28 -54 -5 -26 -1 -37 19 -57 26 -26 28
-26 194 -27 92 -1 269 -1 393 -1 124 1 330 2 458 2 l233 0 24 25 c30 29 32 70
5 105 l-19 25 -628 3 -629 2 -22 -23z"/>
<path d="M1090 3845 c-18 -13 -89 -77 -157 -141 -68 -63 -142 -132 -165 -151
-67 -55 -88 -90 -88 -143 0 -78 53 -120 153 -120 87 0 90 -3 140 -108 25 -53
48 -106 51 -118 10 -36 61 -75 103 -81 35 -4 45 -1 74 25 l34 30 3 157 c3 141
6 156 20 152 10 -3 37 -13 61 -22 87 -32 175 8 175 78 0 74 -70 117 -190 117
l-76 0 6 43 c3 23 8 81 12 128 7 98 -6 138 -56 164 -40 21 -61 19 -100 -10z"/>
<path d="M4619 3847 c-8 -7 -23 -24 -33 -39 -16 -24 -17 -60 -17 -350 0 -382
2 -415 37 -445 47 -43 78 -32 163 56 42 43 94 100 116 126 57 66 152 138 173
130 9 -3 13 -3 9 1 -4 4 2 22 14 40 13 21 18 41 14 57 -8 30 -364 409 -400
425 -33 15 -56 15 -76 -1z"/>
<path d="M3037 1409 c-4 -13 -9 -82 -13 -154 -5 -123 -4 -131 16 -155 21 -24
22 -24 36 -5 8 10 14 34 14 52 0 30 3 33 30 33 42 0 94 23 114 51 9 13 16 41
16 62 0 31 -7 46 -34 73 -31 31 -39 34 -95 34 -45 0 -62 4 -69 16 -8 14 -10
13 -15 -7z m127 -85 c9 -4 16 -18 16 -34 0 -30 -15 -40 -61 -40 -27 0 -30 3
-27 27 2 17 12 32 28 40 30 15 25 14 44 7z"/>
<path d="M2880 1391 c-5 -11 -10 -60 -10 -110 0 -106 -4 -121 -35 -121 -50 0
-55 7 -56 89 -2 112 -9 135 -41 139 -29 3 -26 15 -43 -166 l-6 -63 39 -40 c35
-34 45 -39 86 -39 40 0 52 5 87 38 l40 37 6 113 c4 71 10 112 17 112 17 1 -37
29 -56 30 -10 0 -22 -9 -28 -19z"/>
<path d="M1680 1391 c-25 -7 -25 -7 -28 -147 -3 -151 3 -171 48 -176 25 -3 25
-2 22 59 l-3 62 63 3 c63 3 63 3 66 35 l3 32 -63 3 c-60 3 -63 4 -63 28 0 24
4 25 65 30 l65 5 3 38 3 37 -78 -1 c-43 -1 -89 -4 -103 -8z"/>
<path d="M2027 1393 c-4 -3 -7 -71 -7 -149 0 -103 3 -145 13 -151 6 -4 56 -9
111 -11 105 -5 116 0 116 44 0 24 -31 34 -106 34 l-44 0 0 120 0 120 -38 0
c-21 0 -42 -3 -45 -7z"/>
<path d="M2370 1393 c-30 -3 -58 -10 -62 -16 -4 -7 -8 -78 -8 -159 l0 -148 98
0 c53 0 103 4 109 8 7 4 14 19 15 32 3 21 -2 25 -27 28 -97 8 -115 13 -115 33
0 17 7 19 75 19 l75 0 0 30 c0 17 -3 30 -7 31 -109 16 -138 25 -141 46 -3 20
2 22 65 28 81 7 113 19 113 40 0 31 -44 38 -190 28z"/>
<path d="M3282 1388 c-5 -7 -12 -80 -13 -163 l-4 -150 77 2 c42 2 96 7 119 12
29 7 47 6 60 -2 22 -14 125 5 148 27 19 20 25 108 13 190 -6 38 -13 70 -14 72
-2 1 -24 8 -50 15 -60 16 -119 0 -165 -46 -39 -39 -41 -64 -14 -135 22 -58 18
-63 -45 -58 l-39 3 -8 114 c-7 111 -13 130 -43 131 -6 0 -16 -6 -22 -12z m308
-59 c32 -12 32 -12 26 -65 -10 -89 -20 -104 -65 -104 -47 0 -57 11 -66 72 -9
57 0 87 28 98 30 12 39 12 77 -1z"/>
<path d="M1900 1235 l0 -155 35 0 35 0 0 155 0 155 -35 0 -35 0 0 -155z"/>
<path d="M4020 1273 c0 -65 -3 -135 -6 -155 l-7 -38 75 0 c106 0 161 27 197
97 18 35 13 102 -11 141 -30 48 -86 72 -175 72 l-73 0 0 -117z m165 12 c53
-53 12 -134 -67 -135 -16 0 -18 10 -18 73 0 41 3 77 7 80 14 15 55 6 78 -18z"/>
<path d="M3811 1352 c-29 -41 -120 -254 -114 -268 5 -13 61 -40 68 -32 3 2 11
22 18 44 11 32 20 41 49 48 49 12 66 3 74 -38 5 -32 10 -36 35 -36 17 0 32 6
35 14 6 15 -30 144 -68 244 -17 46 -23 52 -48 52 -20 0 -35 -9 -49 -28z m59
-108 c14 -35 14 -34 -20 -34 -32 0 -36 9 -20 41 15 26 29 24 40 -7z"/>
</g>
</svg>
