<?xml version="1.0" standalone="no"?>
<!DOCTYPE svg PUBLIC "-//W3C//DTD SVG 20010904//EN"
 "http://www.w3.org/TR/2001/REC-SVG-20010904/DTD/svg10.dtd">
<svg version="1.0" xmlns="http://www.w3.org/2000/svg"
 width="512.000000pt" height="1024.000000pt" viewBox="0 0 512.000000 1024.000000"
 preserveAspectRatio="xMidYMid meet">

<g transform="translate(0.000000,1024.000000) scale(0.100000,-0.100000)"
fill="#000000" stroke="none">
<path d="M0 5120 l0 -5120 2560 0 2560 0 0 5120 0 5120 -2560 0 -2560 0 0
-5120z m3056 4354 c21 -10 101 -79 179 -153 77 -75 223 -214 324 -310 101 -96
195 -193 210 -215 l26 -40 3 -955 c2 -688 -1 -970 -9 -1006 -15 -67 -49 -124
-109 -184 -71 -71 -121 -87 -304 -95 l-149 -7 7 33 c4 18 9 51 12 73 12 93 0
85 133 84 156 -1 187 14 231 113 19 45 20 63 20 664 -1 341 -3 722 -7 847 l-6
228 -256 -3 -256 -3 -58 29 c-69 35 -111 80 -145 155 -25 55 -26 63 -30 329
l-4 272 -522 0 -522 0 -52 -26 c-66 -33 -108 -84 -122 -148 -8 -36 -10 -385
-8 -1176 l3 -1125 22 -41 c28 -53 83 -100 130 -113 21 -6 88 -11 149 -11 l111
0 6 -82 c3 -45 3 -86 0 -91 -7 -12 -263 3 -315 20 -60 18 -158 94 -202 155
-18 26 -41 73 -52 105 -18 55 -18 113 -19 1223 l0 1165 33 67 c59 120 168 212
278 236 22 5 308 7 636 6 545 -3 601 -4 634 -20z m-63 -1317 c164 -166 312
-320 328 -341 51 -68 34 -152 -44 -210 -24 -18 -47 -22 -145 -26 l-116 -5 3
-387 c3 -378 2 -388 -18 -416 -11 -16 -42 -39 -69 -50 -43 -19 -71 -21 -293
-23 -245 -3 -246 -3 -294 21 -89 46 -84 24 -87 456 -3 310 -6 384 -17 398 -11
13 -27 16 -65 14 -28 -1 -81 -1 -118 0 -60 2 -71 5 -104 34 -20 18 -43 48 -51
66 -30 72 -28 75 333 429 184 180 347 334 362 340 67 31 75 25 395 -300z
m1482 78 c27 -26 34 -90 16 -138 -12 -30 0 -37 63 -37 42 0 114 -36 143 -72
26 -31 26 -73 1 -103 -23 -26 -29 -28 -99 -27 -41 1 -80 -2 -87 -6 -7 -5 -13
-38 -16 -85 -4 -92 -27 -127 -82 -127 -65 0 -93 80 -60 172 7 21 11 40 8 43
-3 3 -49 5 -103 5 -90 0 -99 2 -113 22 -24 34 -20 92 8 125 22 26 30 28 124
33 55 3 103 8 106 11 4 3 -3 18 -15 34 -13 16 -24 47 -27 75 -4 42 -1 52 21
74 34 34 79 34 112 1z m-3590 1 c45 -19 55 -42 55 -125 l0 -71 65 0 c77 0 118
-18 140 -60 22 -43 19 -68 -15 -102 -27 -26 -36 -30 -68 -24 -20 3 -61 9 -91
13 l-53 6 7 -71 c8 -80 -8 -130 -51 -152 -61 -33 -110 27 -116 140 l-3 65 -88
-4 c-81 -3 -91 -1 -113 20 -18 17 -24 33 -24 65 0 35 5 47 34 72 32 27 67 39
160 54 16 2 23 16 32 63 15 78 19 87 52 108 33 20 35 20 77 3z m2097 -3206
c64 -18 179 -122 615 -555 141 -140 173 -177 182 -211 7 -28 12 -357 13 -1040
l3 -999 -31 -65 c-39 -83 -101 -145 -184 -184 l-65 -31 -870 0 -870 0 -67 32
c-90 42 -160 110 -201 192 l-32 66 -3 920 c-1 506 1 1071 6 1255 7 334 7 335
34 392 49 105 154 196 257 224 59 16 1157 19 1213 4z m1461 -1202 c32 -17 394
-384 401 -406 8 -23 -6 -62 -28 -84 -8 -9 -39 -19 -68 -23 -29 -4 -63 -12 -75
-19 -24 -13 -111 -122 -167 -209 -57 -90 -119 -106 -175 -46 -19 21 -21 34
-21 161 l0 139 -64 -7 c-116 -12 -176 14 -176 77 0 71 46 100 162 102 l80 2
-6 90 c-12 167 11 218 107 234 5 0 18 -4 30 -11z m-3562 -14 c49 -25 60 -67
53 -194 l-7 -109 70 6 c88 7 113 1 158 -38 47 -42 49 -86 3 -124 -31 -27 -35
-27 -116 -21 -46 4 -89 9 -97 12 -11 5 -14 -23 -17 -146 l-3 -152 -28 -24
c-43 -37 -97 -33 -144 10 -31 28 -38 42 -44 92 -4 32 -8 89 -8 127 l-1 67
-114 0 c-98 0 -117 3 -139 20 -55 44 -43 99 41 180 31 30 102 106 157 168 55
63 111 120 125 127 33 19 74 18 111 -1z m725 -2418 c13 -54 5 -61 -78 -64 -76
-3 -76 -3 -80 -32 -3 -17 -2 -32 0 -35 3 -3 29 -5 58 -5 67 0 84 -7 84 -35 0
-18 -7 -24 -37 -29 -21 -3 -50 -6 -64 -6 -25 0 -27 -4 -33 -60 -7 -59 -7 -60
-34 -54 -15 4 -31 9 -36 12 -10 6 -2 299 9 310 3 4 39 10 78 13 131 11 126 11
133 -15z m112 15 c10 -6 14 -47 15 -167 l2 -159 -34 -3 c-18 -2 -38 1 -43 6
-7 7 -8 68 -3 171 7 156 8 161 29 161 11 0 27 -4 34 -9z m136 3 c13 -5 16 -26
16 -125 l0 -119 59 0 c74 0 91 -6 91 -34 0 -49 -18 -57 -120 -54 l-95 3 -3
154 c-3 173 3 194 52 175z m446 -27 c0 -43 -15 -51 -94 -55 -71 -4 -76 -6 -76
-27 0 -21 5 -23 65 -27 72 -4 74 -5 77 -39 3 -23 1 -24 -69 -27 -40 -2 -73 -7
-73 -12 0 -4 -3 -15 -6 -24 -5 -14 6 -16 85 -16 l91 0 0 -34 c0 -22 -6 -36
-16 -40 -20 -8 -188 -8 -208 0 -14 5 -16 29 -16 165 l0 158 113 3 c61 2 115 2
120 0 4 -2 7 -13 7 -25z m1099 19 c19 -23 120 -256 127 -292 l6 -34 -41 0
c-37 0 -41 3 -49 32 -9 37 -24 43 -89 33 -38 -6 -44 -10 -50 -36 -5 -27 -9
-29 -49 -29 -24 0 -44 4 -44 10 0 5 12 35 26 67 14 32 41 98 60 148 19 49 40
95 46 102 14 17 43 17 57 -1z m-804 -28 c3 -18 9 -71 13 -118 l7 -85 58 3 c33
1 72 -4 91 -12 l34 -14 4 67 c4 86 30 124 107 159 77 35 146 40 198 14 48 -25
92 -74 94 -105 6 -86 -17 -138 -81 -182 -55 -38 -109 -42 -195 -12 -70 23 -70
23 -135 6 -36 -10 -100 -18 -143 -18 -70 -1 -80 2 -102 24 -24 23 -25 29 -25
165 l0 140 35 0 c31 0 35 -3 40 -32z m1115 21 c89 -19 150 -89 150 -173 0 -86
-72 -139 -207 -151 l-83 -7 0 164 c0 91 3 168 7 171 10 10 76 8 133 -4z"/>
<path d="M3052 9027 c4 -319 -8 -307 326 -314 214 -4 224 -3 218 14 -3 10 -61
70 -128 133 -68 63 -184 177 -259 253 -75 75 -142 137 -148 137 -9 0 -12 -55
-9 -223z"/>
<path d="M1775 4853 c-82 -43 -122 -108 -129 -214 -9 -116 -15 -1813 -7 -2116
l6 -271 30 -44 c17 -24 55 -58 85 -76 l55 -32 836 2 837 3 39 31 c21 17 51 50
68 73 l29 42 3 582 c2 320 1 727 -3 905 l-6 322 -260 0 c-165 0 -275 4 -298
11 -54 16 -131 78 -157 125 -33 60 -43 152 -43 427 l0 247 -527 0 c-461 -1
-532 -3 -558 -17z m1503 -1128 c30 -36 28 -75 -6 -108 l-28 -27 -613 0 -613 0
-29 29 c-16 16 -29 37 -29 46 0 13 24 69 33 77 7 6 501 13 852 11 l410 -2 23
-26z m-15 -380 c10 -4 25 -21 33 -37 13 -24 13 -35 4 -58 -25 -61 -19 -61
-679 -58 -591 3 -600 3 -628 24 -47 35 -41 112 10 135 25 11 1232 5 1260 -6z
m23 -438 c31 -36 30 -58 -2 -96 l-26 -31 -628 0 -628 0 -27 32 c-20 23 -25 38
-20 57 8 32 23 51 50 62 11 4 298 7 638 6 l619 -2 24 -28z m-33 -378 c48 -22
61 -88 25 -126 l-21 -23 -620 0 -619 0 -29 29 c-16 16 -29 39 -29 51 0 12 13
35 29 51 l29 29 606 0 c422 0 612 -3 629 -11z"/>
<path d="M3043 4543 c6 -239 13 -285 51 -305 27 -16 506 -25 506 -10 0 11
-544 542 -555 542 -5 0 -5 -102 -2 -227z"/>
<path d="M3355 1264 c-21 -51 -20 -54 25 -54 22 0 40 2 40 5 0 10 -40 85 -45
85 -3 0 -12 -16 -20 -36z"/>
<path d="M3001 1329 c-84 -34 -57 -169 34 -169 42 0 66 28 72 84 5 38 2 48
-20 70 -28 27 -47 31 -86 15z"/>
<path d="M3650 1240 l0 -90 35 0 c49 0 85 36 85 85 0 49 -13 71 -51 84 -67 23
-69 21 -69 -79z"/>
</g>
</svg>
